<?xml version="1.0" standalone="no"?><!DOCTYPE svg PUBLIC "-//W3C//DTD SVG 1.1//EN" "http://www.w3.org/Graphics/SVG/1.1/DTD/svg11.dtd"><svg t="1570455242547" class="icon" viewBox="0 0 1024 1024" version="1.1" xmlns="http://www.w3.org/2000/svg" p-id="27517" xmlns:xlink="http://www.w3.org/1999/xlink" width="200" height="200"><defs><style type="text/css"></style></defs><path d="M890.24 1017.6h-768a104.32 104.32 0 0 1-113.92-95.36V312.96a90.88 90.88 0 0 1 37.76-71.68L267.52 38.4A123.52 123.52 0 0 1 343.68 12.16h467.2a104.96 104.96 0 0 1 111.36 96v164.48a32 32 0 0 1-32 32 32 32 0 0 1-32-32V108.16c0-16.64-22.4-32-47.36-32h-467.2a64 64 0 0 0-35.2 10.88L87.04 289.92a30.08 30.08 0 0 0-14.72 23.04v609.28c0 16.64 22.4 31.36 47.36 31.36h768a32.64 32.64 0 0 1 32 32 32 32 0 0 1-29.44 32z" fill="#323333" p-id="27518"></path><path d="M983.68 453.76H525.44a32 32 0 0 1-32-32 32 32 0 0 1 32-32h458.24a32.64 32.64 0 0 1 32 32 32 32 0 0 1-32 32zM983.68 655.36H525.44a32 32 0 0 1 0-64h458.24a32 32 0 0 1 0 64zM983.68 856.32H525.44a32 32 0 0 1-32-32 32 32 0 0 1 32-32h458.24a32.64 32.64 0 0 1 32 32 32 32 0 0 1-32 32z" fill="#323333" p-id="27519"></path></svg>