<?xml version="1.0" standalone="no"?><!DOCTYPE svg PUBLIC "-//W3C//DTD SVG 1.1//EN" "http://www.w3.org/Graphics/SVG/1.1/DTD/svg11.dtd"><svg t="1570455631720" class="icon" viewBox="0 0 1024 1024" version="1.1" xmlns="http://www.w3.org/2000/svg" p-id="1896" xmlns:xlink="http://www.w3.org/1999/xlink" width="200" height="200"><defs><style type="text/css"></style></defs><path d="M60.416 191.488v640c0 15.36 8.192 27.648 20.48 34.816V156.672c-11.264 7.168-20.48 20.48-20.48 34.816zM169.984 150.528h20.48v721.92h-20.48zM605.184 150.528h20.48v721.92h-20.48zM714.752 150.528h20.48v721.92h-20.48zM268.288 150.528h40.96v721.92h-40.96zM388.096 150.528h20.48v721.92h-20.48zM486.4 150.528h40.96v721.92h-40.96zM823.296 150.528h20.48v721.92h-20.48zM922.624 150.528v721.92c22.528 0 40.96-18.432 40.96-40.96V191.488c0-22.528-18.432-40.96-40.96-40.96z" p-id="1897"></path></svg>