<?xml version="1.0" standalone="no"?><!DOCTYPE svg PUBLIC "-//W3C//DTD SVG 1.1//EN" "http://www.w3.org/Graphics/SVG/1.1/DTD/svg11.dtd"><svg t="1570455248776" class="icon" viewBox="0 0 1024 1024" version="1.1" xmlns="http://www.w3.org/2000/svg" p-id="27635" xmlns:xlink="http://www.w3.org/1999/xlink" width="200" height="200"><defs><style type="text/css"></style></defs><path d="M506.88 1018.24a95.36 95.36 0 0 1-46.72-12.8L103.68 800a94.08 94.08 0 0 1-46.08-80.64V307.84a93.44 93.44 0 0 1 46.72-80.64L460.16 21.12a93.44 93.44 0 0 1 93.44 0l356.48 206.08A93.44 93.44 0 0 1 960 307.84v411.52a93.44 93.44 0 0 1-46.72 80.64l-359.68 205.44a95.36 95.36 0 0 1-46.72 12.8z m0-946.56a33.92 33.92 0 0 0-15.36 3.84L135.04 280.96a32.64 32.64 0 0 0-15.36 26.88v411.52a30.72 30.72 0 0 0 15.36 26.24l356.48 206.08a32.64 32.64 0 0 0 30.72 0l356.48-206.08a29.44 29.44 0 0 0 15.36-26.24V307.84a29.44 29.44 0 0 0-15.36-26.24L522.24 75.52a32 32 0 0 0-15.36-3.84zM476.16 48.64z" fill="#323333" p-id="27636"></path><path d="M501.76 856.96a30.72 30.72 0 0 1-31.36-30.72V481.92a31.36 31.36 0 0 1 64 0v344.32a30.72 30.72 0 0 1-32.64 30.72z" fill="#323333" p-id="27637"></path><path d="M505.6 512a31.36 31.36 0 0 1-28.8-19.84 31.36 31.36 0 0 1 17.28-40.96l268.16-104.96a31.36 31.36 0 0 1 40.32 17.92 30.72 30.72 0 0 1-17.92 40.32L517.12 512a37.12 37.12 0 0 1-11.52 0z" fill="#323333" p-id="27638"></path><path d="M500.48 512a24.96 24.96 0 0 1-11.52 0L236.8 408.96a31.36 31.36 0 0 1-17.28-40.96 30.72 30.72 0 0 1 40.32-17.28L512 448a31.36 31.36 0 0 1 17.92 40.96 32 32 0 0 1-29.44 23.04z" fill="#323333" p-id="27639"></path><path d="M236.8 375.04m-79.36 0a79.36 79.36 0 1 0 158.72 0 79.36 79.36 0 1 0-158.72 0Z" fill="#323333" p-id="27640"></path><path d="M510.72 826.24m-79.36 0a79.36 79.36 0 1 0 158.72 0 79.36 79.36 0 1 0-158.72 0Z" fill="#323333" p-id="27641"></path><path d="M776.96 375.04m-79.36 0a79.36 79.36 0 1 0 158.72 0 79.36 79.36 0 1 0-158.72 0Z" fill="#323333" p-id="27642"></path></svg>