<?xml version="1.0" standalone="no"?><!DOCTYPE svg PUBLIC "-//W3C//DTD SVG 1.1//EN" "http://www.w3.org/Graphics/SVG/1.1/DTD/svg11.dtd"><svg t="1570455139807" class="icon" viewBox="0 0 1024 1024" version="1.1" xmlns="http://www.w3.org/2000/svg" p-id="929" xmlns:xlink="http://www.w3.org/1999/xlink" width="200" height="200"><defs><style type="text/css"></style></defs><path d="M608.8 888.1H209.1c-26.7 0-48.4-21.7-48.4-48.4V184.3c0-26.7 21.7-48.4 48.4-48.4H723c26.7 0 48.4 21.7 48.4 48.4V368c0 10.3-8.3 18.6-18.6 18.6s-18.6-8.3-18.6-18.6V184.3c0-6.1-5.1-11.2-11.2-11.2H209.1c-6.1 0-11.2 5.1-11.2 11.2v655.4c0 6.1 5.1 11.2 11.2 11.2h399.7c10.3 0 18.6 8.3 18.6 18.6s-8.3 18.6-18.6 18.6z" fill="#444444" p-id="930"></path><path d="M641.6 740.4c-80.4 0-145.8-65.4-145.8-145.8s65.4-145.9 145.8-145.9 145.9 65.4 145.9 145.9c-0.1 80.4-65.5 145.8-145.9 145.8z m0-254.5c-59.9 0-108.6 48.7-108.6 108.6 0 59.9 48.7 108.6 108.6 108.6 59.9 0 108.6-48.7 108.6-108.6 0-59.8-48.7-108.6-108.6-108.6z" fill="#FF8803" p-id="931"></path><path d="M848.7 821.1c-4.8 0-9.5-1.8-13.2-5.5L718 698.1c-7.3-7.3-7.3-19.1 0-26.3s19.1-7.3 26.3 0l117.5 117.5c7.3 7.3 7.3 19.1 0 26.3-3.6 3.7-8.3 5.5-13.1 5.5z" fill="#FF8803" p-id="932"></path><path d="M641.1 307.2h-350c-10.3 0-18.6-8.3-18.6-18.6s8.3-18.6 18.6-18.6h350c10.3 0 18.6 8.3 18.6 18.6s-8.3 18.6-18.6 18.6zM462.4 451.2H291.1c-10.3 0-18.6-8.3-18.6-18.6s8.3-18.6 18.6-18.6h171.3c10.3 0 18.6 8.3 18.6 18.6 0 10.2-8.4 18.6-18.6 18.6zM417.7 595.2H291.1c-10.3 0-18.6-8.3-18.6-18.6s8.3-18.6 18.6-18.6h126.6c10.3 0 18.6 8.3 18.6 18.6 0 10.2-8.3 18.6-18.6 18.6zM462.4 739.2H291.1c-10.3 0-18.6-8.3-18.6-18.6s8.3-18.6 18.6-18.6h171.3c10.3 0 18.6 8.3 18.6 18.6s-8.4 18.6-18.6 18.6z" fill="#444444" p-id="933"></path></svg>