<?xml version="1.0" standalone="no"?><!DOCTYPE svg PUBLIC "-//W3C//DTD SVG 1.1//EN" "http://www.w3.org/Graphics/SVG/1.1/DTD/svg11.dtd"><svg t="1570455383958" class="icon" viewBox="0 0 1024 1024" version="1.1" xmlns="http://www.w3.org/2000/svg" p-id="29564" xmlns:xlink="http://www.w3.org/1999/xlink" width="200" height="200"><defs><style type="text/css"></style></defs><path d="M580.48 615.04a32 32 0 0 1-22.4-8.96L448 493.44 332.8 606.08a32 32 0 0 1-54.4-23.04V46.08a32 32 0 0 1 32-32h270.08a32 32 0 0 1 32 32v536.96a31.36 31.36 0 0 1-19.84 29.44 27.52 27.52 0 0 1-12.16 2.56zM448 416a31.36 31.36 0 0 1 22.4 9.6l78.08 80.64V78.08H342.4v428.16L422.4 425.6A32.64 32.64 0 0 1 448 416z" fill="#323333" p-id="29565"></path><path d="M919.68 1015.68H104.32a97.28 97.28 0 0 1-96.64-96.64V103.68A96.64 96.64 0 0 1 104.32 7.68h815.36a96.64 96.64 0 0 1 96.64 96v815.36a97.28 97.28 0 0 1-96.64 96.64zM104.32 71.68a32 32 0 0 0-32.64 32v815.36a32.64 32.64 0 0 0 32.64 32.64h815.36a32.64 32.64 0 0 0 32.64-32.64V103.68a32 32 0 0 0-32.64-32z" fill="#323333" p-id="29566"></path></svg>