<?xml version="1.0" standalone="no"?><!DOCTYPE svg PUBLIC "-//W3C//DTD SVG 1.1//EN" "http://www.w3.org/Graphics/SVG/1.1/DTD/svg11.dtd"><svg t="1570455361357" class="icon" viewBox="0 0 1024 1024" version="1.1" xmlns="http://www.w3.org/2000/svg" p-id="29209" xmlns:xlink="http://www.w3.org/1999/xlink" width="200" height="200"><defs><style type="text/css"></style></defs><path d="M512 943.36a96.64 96.64 0 0 1-69.12-28.8L32 503.68a97.92 97.92 0 0 1 0-138.88l256-256a97.28 97.28 0 0 1 138.24 0l103.68 104.32a31.36 31.36 0 1 1-44.8 44.8L384 154.24a34.56 34.56 0 0 0-48 0l-256 256a33.92 33.92 0 0 0 0 48l410.88 411.52a34.56 34.56 0 0 0 48 0 32 32 0 0 1 45.44 0 30.72 30.72 0 0 1 0 44.8 97.28 97.28 0 0 1-72.32 28.8zM858.24 618.24a32.64 32.64 0 0 1-23.04-9.6L583.68 357.12a32 32 0 0 1 0-44.8 32 32 0 0 1 45.44 0l251.52 250.88a32 32 0 0 1 0 45.44 32 32 0 0 1-22.4 9.6z" fill="#323333" p-id="29210"></path><path d="M512 943.36a96.64 96.64 0 0 1-69.12-28.8 32 32 0 0 1 0-44.8 32 32 0 0 1 45.44 0 34.56 34.56 0 0 0 48 0l410.88-411.52a33.92 33.92 0 0 0 0-48l-256-256a34.56 34.56 0 0 0-48 0L413.44 384l30.08 7.04a83.84 83.84 0 0 0 78.08-21.76l128-128a32 32 0 0 1 44.8 0 32 32 0 0 1 0 45.44l-128 128a147.84 147.84 0 0 1-138.24 39.68L384 441.6a54.4 54.4 0 0 1-39.68-37.12 53.12 53.12 0 0 1 14.08-52.48l239.36-242.56a99.84 99.84 0 0 1 138.24 0l256 256a97.92 97.92 0 0 1 0 138.88l-411.52 410.24a96 96 0 0 1-68.48 28.8z" fill="#323333" p-id="29211"></path><path d="M762.24 704a32 32 0 0 1-23.04-8.96l-140.8-140.8a32 32 0 1 1 45.44-45.44l140.8 140.8a32.64 32.64 0 0 1 0 45.44 31.36 31.36 0 0 1-22.4 8.96zM677.12 785.92a34.56 34.56 0 0 1-23.04-8.96L512 636.16a32 32 0 0 1 45.44-45.44l140.8 140.8a32 32 0 0 1 0 45.44 34.56 34.56 0 0 1-21.12 8.96zM592 871.04a32 32 0 0 1-22.4-8.96l-140.8-140.8a32 32 0 0 1 0-45.44 30.72 30.72 0 0 1 44.8 0l140.8 140.8a32 32 0 0 1 0 45.44 33.28 33.28 0 0 1-22.4 8.96z" fill="#323333" p-id="29212"></path></svg>